<?xml version="1.0" encoding="utf-8"?>
<!-- Generator: Adobe Illustrator 21.0.0, SVG Export Plug-In . SVG Version: 6.00 Build 0)  -->
<svg version="1.1" id="Capa_1" xmlns="http://www.w3.org/2000/svg" xmlns:xlink="http://www.w3.org/1999/xlink" x="0px" y="0px"
	 viewBox="0 0 830.2 500" style="enable-background:new 0 0 830.2 500;" xml:space="preserve">
<style type="text/css">
	.st0{fill:url(#SVGID_1_);}
	.st1{fill:none;stroke:#FFFFFF;stroke-miterlimit:10;}
</style>
<g id="ARTBOARD_2">
</g>
<g id="ARTBOARD_1">
	
		<linearGradient id="SVGID_1_" gradientUnits="userSpaceOnUse" x1="-0.9" y1="252.65" x2="830.1" y2="252.65" gradientTransform="matrix(1 0 0 -1 0 502)">
		<stop  offset="0" style="stop-color:#478ED5"/>
		<stop  offset="0.43" style="stop-color:#5ECAA7"/>
		<stop  offset="0.7068" style="stop-color:#61A8BB"/>
		<stop  offset="1" style="stop-color:#8F62F2"/>
	</linearGradient>
	<rect x="-0.9" y="-0.4" class="st0" width="831" height="499.5"/>
</g>
<g id="DESIGNED_BY_FREEPIK">
	<g>
		<g>
			<path class="st1" d="M39.6,243.1c0,0,92.6,0,212.4,0c1.8,0,3.7,0,5.5,0c33.1-2.5,40.5-33.7,64.1-50c5.9-3.7,10.3-1.2,14.8,1.2
				c6.6,8.1,10,19.1,14.7,28.6c0.9,1.9,2,3.7,3.1,5.5c1.2,6,9.6,9.6,16.6,7.7c1.4-0.4,2.8-1,4-1.8c25.1-21.2,25.1-81.2,54.6-70
				c9.2,3.5,14.7,11.4,19.2,21c0.9,1.9,1.7,3.9,2.6,5.9c3.6,8,7.9,24.7,17.9,28.9c1.7,0.7,3.5,1,5.5,1c14,0.8,18.4-18,28.8-13
				c4.7,2.1,8.3,5.1,11.2,8.7c1.4,1.8,2.7,3.7,3.8,5.8c5.7,10.5,8.6,20.5,11.6,30.5c3,6.2,10.3,6.2,14.8,2.5
				c17.7-16.2,14.8-50,38.4-51.2c23.6,0,22.2,37.5,52.3,38.7c2.1,0,4.1,0,6.1,0c82.8,0,140.2,0,140.2,0"/>
			<path class="st1" d="M40,243.2c0,0,86.7,0,200.7,0c2.3,0,4.5,0,6.8,0c0.8,0,1.5,0,2.3,0c1.8,0,3.7,0.2,5.5,0.1
				c29.7-2.4,37.9-21.3,58-36.1c1.7-1.3,3.5-2.6,5.4-3.8c5.8-3.2,10.1-3.5,14.4-1.2c0.6,0.3,1.2,0.6,1.7,0.9
				c8.2,8.5,11.8,20.7,16.9,31.4c1,2.1,2.1,4.2,3.3,6.2c0.4,1.2,1.1,2.2,2.2,3.1c1,0.8,2.2,1.4,3.5,1.9c3.2,1.1,7.1,1.2,10.7-0.1
				c1.3-0.5,2.7-1.1,3.8-2.1c5.8-5,9.7-12.4,13.3-20.1c0.8-1.7,1.6-3.4,2.3-5.1c3.9-9,8.3-18.7,12.6-25.3
				c7.5-11.4,14.6-19.2,27.6-13.5c7.3,3.2,12.4,9,16.7,15.6c1.1,1.7,2.2,3.4,3.2,5.1c1.1,1.8,2.1,3.5,3.1,5.2
				c4.1,6.8,8.6,19.8,17.9,22c1.5,0.4,3.2,0.4,5.1,0.2c8.2-1,13-8.3,18-12.7c1.4-1.2,2.7-2.2,4.2-2.6c1.5-0.5,3.2-0.5,5,0.2
				c1.6,0.6,3.1,1.2,4.5,1.9c2.8,1.4,5.1,3.4,7.1,5.8c1.4,1.8,2.7,3.8,3.8,5.9c4.5,9,7,18.1,9.7,26.4c0.5,1.6,0.8,3.2,1.4,4.8
				c2.4,6.4,9.7,7,13.9,4.2c1.3-0.8,2.4-1.8,3.5-2.8c4.7-4.5,8.3-9.1,11.2-16.2c5.6-13.7,9.8-27.4,23.3-29.3
				c17.7-2.6,20.9,17.8,37.7,25.4c3.7,1.7,8.3,3.6,13.8,4.1c0.6,0.1,1.3,0.1,1.9,0.1c1.4,0.1,2.8,0.2,4.2,0.2c0.7,0,1.5,0.1,2.2,0.1
				c2.5,0.1,5,0.1,7.5,0.2c1.8,0,3.7,0,5.5,0c75.6,0,126.9,0,126.9,0"/>
			<path class="st1" d="M40.4,243.4c0,0,85.4,0,198.3,0c2.2,0,4.5,0,6.7,0c0.7,0,1.5,0,2.2,0c1.8,0,3.6,0.3,5.4,0.2
				c29-1.3,36.5-13.6,57.2-26.5c1.8-1.1,3.6-2.3,5.5-3.4c6.4-3.2,10.8-5.2,15.5-2.8c0.6,0.3,1.3,0.7,1.9,1
				c9.8,8.8,13.7,22.3,19.1,34.2c1.1,2.4,2.2,4.7,3.5,6.9c0.5,0.9,1.3,1.6,2.3,2.2c1,0.5,2.2,0.9,3.5,1.2c3.2,0.6,7,0.3,10.3-1.3
				c1.3-0.6,2.5-1.3,3.6-2.4c5.6-5.4,9.2-12.9,12.7-20.8c0.8-1.7,1.5-3.5,2.3-5.2c3.8-9,9.1-18.6,14.1-23.7
				c8.4-8.5,15.5-14.5,28-8.2c7.2,3.6,12.4,9.5,17.1,15.7c1.3,1.7,2.5,3.2,3.6,4.8c1.2,1.6,2.4,3.1,3.6,4.4
				c4.8,5.6,9.3,14.2,17.9,15.1c1.4,0.1,2.9-0.2,4.6-0.6c7.4-2,11.9-9.6,16.7-14.2c1.3-1.3,2.6-2.3,4.1-2.9c1.5-0.6,3.1-0.7,4.9-0.2
				c1.6,0.4,3.1,0.8,4.6,1.4c3,1.1,5.4,2.9,7.4,5.3c1.4,1.8,2.6,3.8,3.7,6.1c4.2,9,6.4,18.8,9.2,26.9c0.5,1.6,0.8,3.3,1.4,4.9
				c2.3,6.4,8.9,7.7,13,6c1.2-0.5,2.4-1.1,3.4-1.8c4.7-3.2,8.9-5.5,12-12.8c5.7-13.6,9.7-27.4,22.1-30.9
				c16.1-4.6,19.9,10.6,36.9,15.9c3.5,1.1,8.3,3.5,13.9,4.3c0.6,0.1,1.3,0.2,1.9,0.2c1.4,0.2,2.8,0.3,4.2,0.5
				c0.7,0.1,1.5,0.1,2.2,0.2c2.5,0.2,5,0.3,7.6,0.3c1.9,0,3.7,0,5.6,0c76.5,0,128.5,0,128.5,0"/>
			<path class="st1" d="M40.8,243.5c0,0,84.2,0,195.8,0c2.2,0,4.4,0,6.7,0c0.7,0,1.5,0,2.2,0c1.8,0.1,3.6,0.2,5.3,0.3
				c28.3,1.4,35.2-5.9,56.5-16.8c1.8-0.9,3.7-2,5.5-3.1c6.9-3.1,11.6-7,16.7-4.4c0.7,0.4,1.4,0.7,2.1,1.1
				c11.4,9.1,15.5,23.9,21.3,37.1c1.2,2.6,2.4,5.2,3.7,7.6c0.6,0.6,1.4,1,2.5,1.3c1,0.3,2.2,0.4,3.4,0.4c3.2,0.1,6.8-0.7,10-2.5
				c1.2-0.7,2.4-1.6,3.4-2.7c5.3-5.8,8.7-13.5,12.1-21.4c0.8-1.8,1.5-3.5,2.2-5.3c3.7-9,9.7-18.4,15.7-22.1c9-5.6,16.4-9.8,28.3-3
				c7.2,4.1,12.4,10.1,17.4,15.8c1.4,1.6,2.7,3.1,4,4.4c1.4,1.5,2.8,2.7,4.1,3.7c5.4,4.3,9.8,10,17.9,8.2c1.3-0.3,2.6-0.7,4.2-1.4
				c6.7-3,10.9-10.8,15.4-15.6c1.3-1.3,2.5-2.5,4-3.2c1.4-0.7,3-0.9,4.8-0.7c1.6,0.2,3.1,0.5,4.7,0.8c3.2,0.7,5.7,2.4,7.7,4.8
				c1.4,1.8,2.6,3.9,3.6,6.2c3.9,9.1,5.7,19.5,8.7,27.5c0.5,1.7,0.8,3.4,1.4,5.1c2.2,6.3,8.2,8.4,12.2,7.7c1.2-0.2,2.3-0.4,3.4-0.9
				c4.7-1.8,9.5-1.8,12.8-9.4c5.8-13.5,9.6-27.4,20.8-32.5c14.5-6.6,18.8,3.5,36,6.5c3.4,0.6,8.4,3.4,13.9,4.6
				c0.6,0.1,1.2,0.2,1.9,0.4c1.4,0.2,2.8,0.5,4.2,0.7c0.7,0.1,1.5,0.2,2.2,0.3c2.5,0.3,5,0.4,7.7,0.5c1.9,0,3.8,0,5.7,0
				c77.4,0,130.2,0,130.2,0"/>
			<path class="st1" d="M41.2,243.6c0,0,83,0,193.3,0c2.2,0,4.4,0,6.6,0c0.7,0,1.5,0,2.2,0.1c1.8,0.1,3.5,0.3,5.3,0.4
				c27.6,2.3,33.9,1.8,55.7-7.1c1.9-0.8,3.7-1.7,5.6-2.8c7.5-3,12.3-8.7,17.9-6c0.8,0.4,1.5,0.8,2.3,1.2c13,9.5,17.4,25.6,23.5,39.9
				c1.2,2.8,2.5,5.6,4,8.3c0.7,0.3,1.6,0.4,2.6,0.5c1,0,2.1-0.1,3.4-0.3c3.2-0.4,6.7-1.6,9.6-3.7c1.2-0.8,2.3-1.8,3.2-2.9
				c5.1-6.2,8.2-14.1,11.5-22.1c0.7-1.8,1.5-3.6,2.2-5.4c3.6-9,10.1-18.3,17.2-20.6c9.4-3,17.3-5,28.7,2.2
				c7.1,4.5,12.4,10.6,17.8,16c1.6,1.5,3,2.9,4.5,4.1c1.6,1.3,3.1,2.3,4.6,3c6.1,3.1,10.3,5.3,17.9,1.3c1.1-0.6,2.4-1.3,3.7-2.2
				c5.9-4,9.8-12,14.2-17.1c1.2-1.4,2.4-2.6,3.8-3.4c1.4-0.8,2.9-1,4.6-1.1c1.6-0.1,3.1,0.1,4.7,0.3c3.4,0.4,6,1.9,8,4.3
				c1.4,1.8,2.6,4,3.5,6.4c3.7,9.2,5.1,20.2,8.2,28c0.4,1.7,0.8,3.5,1.4,5.2c2.1,6.3,7.4,9,11.3,9.5c1.1,0.1,2.2,0.2,3.3,0.1
				c4.6-0.5,10.2,1.8,13.6-5.9c5.9-13.4,9.6-27.5,19.6-34.1c13-8.7,17.7-4.9,35.1-3c3.2,0.4,8.5,3.2,14,4.8c0.6,0.2,1.2,0.3,1.9,0.5
				c1.4,0.3,2.8,0.6,4.2,0.9c0.7,0.1,1.5,0.3,2.3,0.4c2.5,0.4,5,0.6,7.7,0.6c1.9,0,3.8,0,5.7,0c78.3,0,131.9,0,131.9,0"/>
			<path class="st1" d="M41.7,243.8c0,0,81.7,0,190.9,0c2.2,0,4.3,0,6.5,0c0.7,0,1.5,0,2.2,0.1c1.8,0.1,3.5,0.3,5.2,0.5
				c26.9,3.1,32.6,9.5,54.9,2.6c1.9-0.6,3.8-1.4,5.6-2.4c8.1-3,13.1-10.5,19-7.6c0.8,0.4,1.7,0.8,2.5,1.3
				c14.6,9.8,19.2,27.2,25.7,42.8c1.3,3.1,2.7,6.1,4.2,9c0.8,0,1.7-0.1,2.8-0.4c1-0.2,2.1-0.6,3.3-1c3.2-0.9,6.5-2.5,9.3-5
				c1.1-1,2.1-2,3-3.2c4.8-6.6,7.7-14.7,10.8-22.8c0.7-1.8,1.5-3.7,2.2-5.5c3.4-8.9,10.9-16.4,18.7-19c9.2-3,18.2-0.3,29.1,7.5
				c7,4.9,12.5,11.1,18.2,16.1c1.7,1.5,3.3,2.7,4.9,3.7c1.8,1.2,3.5,1.9,5.1,2.3c6.8,1.8,10.9,0.6,17.9-5.6c1-0.9,2.1-1.8,3.3-3
				c5.2-5,8.8-13.3,12.9-18.6c1.1-1.5,2.3-2.7,3.7-3.7c1.3-0.9,2.8-1.4,4.5-1.6c1.6-0.2,3.1-0.1,4.8-0.2c3.6-0.2,6.3,1.4,8.2,3.8
				c1.4,1.8,2.5,4,3.4,6.5c3.4,9.3,4.5,20.9,7.7,28.5c0.4,1.8,0.8,3.6,1.4,5.3c2,6.3,6.7,9.7,10.4,11.2c1.1,0.4,2.1,0.9,3.2,1.1
				c4.5,0.8,10.8,5.5,14.4-2.5c6-13.3,9.6-27.5,18.4-35.7c11.4-10.7,16.5-10.3,34.3-12.5c3.1-0.4,8.6,3.1,14.1,5
				c0.6,0.2,1.2,0.4,1.8,0.6c1.4,0.4,2.8,0.8,4.2,1.1c0.7,0.2,1.5,0.3,2.3,0.5c2.5,0.4,5.1,0.7,7.8,0.8c1.9,0,3.9,0,5.8,0
				c79.2,0,133.5,0,133.5,0"/>
			<path class="st1" d="M42.1,243.9c0,0,80.5,0,188.4,0c2.1,0,4.3,0,6.4,0c0.7,0,1.4,0,2.1,0.1c1.8,0.1,3.5,0.3,5.1,0.6
				c26.2,3.9,31.3,17.1,54.1,12.3c1.9-0.4,3.8-1.1,5.7-2.1c8.7-2.9,13.9-12.3,20.2-9.2c0.9,0.4,1.8,0.9,2.7,1.3
				c16.2,10.2,21.1,28.8,27.9,45.6c1.4,3.3,2.8,6.6,4.4,9.7c0.9-0.4,1.9-0.7,2.9-1.2s2.1-1.1,3.3-1.7c3.3-1.5,6.3-3.5,8.9-6.2
				c1-1.1,2-2.2,2.8-3.5c4.6-7,7.2-15.3,10.2-23.5c0.7-1.9,1.4-3.7,2.1-5.6c3.3-8.9,10.9-18.9,20.2-17.4c10,1.5,19,4.5,29.5,12.7
				c6.9,5.4,12.5,11.6,18.5,16.2c1.9,1.4,3.6,2.5,5.3,3.4c2,1,3.9,1.5,5.6,1.6c7.5,0.5,11.6-4,17.9-12.5c0.9-1.2,1.8-2.4,2.9-3.8
				c4.5-6,7.7-14.5,11.7-20c1.1-1.5,2.2-2.9,3.5-3.9s2.8-1.6,4.4-2c1.5-0.4,3.2-0.6,4.9-0.8c3.9-0.4,6.6,0.9,8.5,3.3
				c1.4,1.8,2.5,4.1,3.4,6.7c3.1,9.3,3.9,21.6,7.1,29.1c0.4,1.8,0.9,3.7,1.4,5.5c1.9,6.2,5.9,10.3,9.6,12.9c1,0.7,2,1.6,3.2,2.1
				c4.3,1.9,11.5,9.1,15.3,0.9c6.1-13.2,9.5-27.5,17.2-37.3c9.9-12.8,15.4-17,33.4-21.9c3-0.8,8.6,3,14.1,5.2
				c0.6,0.3,1.2,0.5,1.8,0.7c1.4,0.5,2.8,0.9,4.2,1.4c0.7,0.2,1.5,0.4,2.3,0.6c2.5,0.5,5.1,0.9,7.9,0.9c2,0,3.9,0,5.9,0
				c80.1,0,135.2,0,135.2,0"/>
			<path class="st1" d="M42.5,244.1c0,0,79.3,0,185.9,0c2.1,0,4.2,0,6.3,0c0.7,0,1.4,0.1,2.1,0.1c1.7,0.1,3.4,0.4,5,0.7
				c25.5,4.8,30,24.8,53.3,22c2-0.2,3.9-0.8,5.8-1.7c9.2-2.8,14.6-14,21.3-10.8c1,0.5,1.9,0.9,2.9,1.4
				c17.8,10.5,22.9,30.5,30.1,48.5c1.4,3.6,2.9,7,4.6,10.4c1-0.7,2-1.3,3-2.1c1.1-0.8,2.1-1.6,3.2-2.5c3.3-2,6.2-4.4,8.6-7.4
				c1-1.2,1.9-2.4,2.7-3.8c4.3-7.3,6.7-15.9,9.6-24.2c0.7-1.9,1.4-3.8,2.1-5.7c3.2-8.9,11.5-19.4,21.7-15.9
				c10.6,3.6,19.9,9.3,29.8,17.9c6.8,5.9,12.6,12.1,18.9,16.3c2,1.4,3.9,2.3,5.7,3c2.2,0.8,4.2,1.1,6,0.9
				c8.1-0.8,12.3-8.7,17.9-19.5c0.7-1.4,1.6-2.9,2.4-4.5c3.8-7.1,6.7-15.8,10.4-21.5c1-1.6,2.1-3,3.4-4.2c1.2-1.1,2.7-1.9,4.3-2.5
				c1.5-0.6,3.2-1,5-1.3c4.1-0.7,6.8,0.4,8.8,2.8c1.4,1.7,2.4,4.1,3.3,6.8c2.9,9.4,3.2,22.3,6.6,29.6c0.4,1.9,0.9,3.8,1.4,5.6
				c1.8,6.2,5.2,10.9,8.7,14.7c1,1.1,1.9,2.2,3.1,3.1c4.2,3.1,12.1,12.7,16.1,4.4c6.2-13.1,9.5-27.6,15.9-38.9
				c8.4-14.9,14.5-23.6,32.6-31.4c2.9-1.3,8.7,2.8,14.2,5.5c0.6,0.3,1.2,0.6,1.8,0.8c1.3,0.6,2.8,1.1,4.3,1.6
				c0.7,0.2,1.5,0.5,2.3,0.7c2.4,0.6,5.1,1,8,1.1c2,0,4,0,6,0c81,0,136.9,0,136.9,0"/>
			<path class="st1" d="M42.9,244.2c0,0,78,0,183.5,0c2.1,0,4.2,0,6.2,0c0.7,0,1.4,0.1,2.1,0.1c1.7,0.2,3.4,0.4,5,0.8
				c24.8,5.6,28.7,32.4,52.6,31.7c2-0.1,4-0.5,5.8-1.4c9.8-2.8,15.4-15.8,22.5-12.4c1,0.5,2.1,1,3,1.5
				c19.4,10.8,24.8,32.1,32.3,51.3c1.5,3.8,3.1,7.5,4.9,11c1.1-1,2.1-1.9,3.2-3c1.1-1,2.1-2.1,3.1-3.2c3.3-2.5,6-5.4,8.2-8.7
				c0.9-1.3,1.7-2.7,2.5-4.1c4-7.7,6.2-16.5,9-24.9c0.6-2,1.4-3.9,2.1-5.8c3.1-8.9,12.2-19.9,23.2-14.3
				c11.3,5.7,20.7,14.1,30.2,23.2c6.7,6.4,12.7,12.5,19.3,16.5c2.2,1.3,4.2,2.1,6.1,2.7c2.4,0.7,4.6,0.7,6.5,0.2
				c8.8-2.1,13.2-13.3,17.9-26.4c0.6-1.7,1.3-3.5,2-5.3c3.1-8.2,5.6-17,9.1-23c1-1.6,2-3.2,3.3-4.5c1.2-1.2,2.6-2.1,4.1-2.9
				c1.5-0.8,3.2-1.4,5-1.8c4.3-1.1,7.1-0.1,9.1,2.4c1.4,1.7,2.4,4.2,3.2,6.9c2.6,9.5,2.6,23,6.1,30.1c0.4,1.9,0.9,3.9,1.4,5.8
				c1.7,6.2,4.5,11.6,7.8,16.4c0.9,1.4,1.9,2.8,3.1,4c4.1,4.2,12.7,16.4,16.9,7.8c6.3-13,9.5-27.6,14.7-40.5
				c6.9-16.9,13.7-30.1,31.7-40.9c2.8-1.7,8.8,2.7,14.3,5.7c0.6,0.3,1.2,0.7,1.8,0.9c1.3,0.6,2.7,1.3,4.3,1.8
				c0.7,0.3,1.5,0.5,2.3,0.8c2.4,0.7,5.1,1.2,8.1,1.2c2,0,4,0,6,0c81.9,0,138.5,0,138.5,0"/>
			<path class="st1" d="M43.3,244.3c0,0,76.8,0,181,0c2,0,4.1,0,6.2,0.1c30.7,1.2,32.1,41.2,58.7,42.4c2.1,0.1,4-0.3,5.9-1
				c10.4-2.7,16.3-17.7,23.7-14c28.1,12.5,31,43.7,42.8,67.5c1.2-1.3,2.3-2.5,3.3-3.8c1.1-1.3,2.1-2.6,3.1-3.9
				c11.8-10.8,14.1-25.9,18.5-39.8c0.6-2,1.3-4,2-5.9c2.6-9,12.9-20.2,24.8-12.7c20.7,13.7,34,36.2,50.2,45c29.5,15,29.5-40,40.9-62
				c0.9-1.7,2-3.3,3.1-4.7c1.2-1.3,2.5-2.4,4-3.3c1.5-0.9,3.2-1.7,5.1-2.4c17.7-6.2,11.8,27.5,18.2,39.6c0.4,2,0.9,4,1.4,5.9
				c2.1,7.9,5,15.7,10,23.2c4.4,5,13.3,20,17.7,11.2c14.8-30,11.8-70,44.3-92.5c3-2.5,10.3,3.7,16.1,7c2,1,4.2,2.1,6.6,2.9
				c2.4,0.8,5.1,1.3,8.2,1.4c2.1,0,4.1,0,6.1,0c82.8,0,140.2,0,140.2,0"/>
		</g>
		<path class="st1" d="M43.3,243.3c0,0,24.7,0,65.2,0c2.4,0,4.8,0,7.3,0c13.4-1,23.1,5,32.2,11.9c1.8,1.4,3.6,2.8,5.4,4.2
			c0.9,1.1,1.9,2.1,2.9,3s1.9,1.8,2.9,2.6c1.8,1,3.7,2,5.6,2.8c3.3,2,7.7,3.3,12.1,3.3c34,0,75.3-33.7,104.5-8
			c1.4,1.3,2.7,2.7,3.9,4.3c10.7,13.7,14.5,36.1,32.8,47.1c1.6,1,3.3,2,5.1,2.8c2.5,1.2,4.8,1.9,7,2.2c18.4-4.1,19.6-22.8,30.4-31.6
			c1.6-1.3,3.3-2.3,5.3-3.1c1.5,3.7,0,11.2,8.9,6.2c3-1.2,5.9-3.7,8.9-6.2c1.5,0,5.9-1.3,7.4,0c16.3,6.3,16.3,30,34,28.8
			c20.7-1.2,14.8-32.5,35.4-33.7c22.2,0,28.1,22.5,36.4,36.7c0.9,1.8,1.8,3.5,2.7,5.3c1.9,3.5,4,7,6.6,10.5c7.4,7.5,16.2,0,20.7-5
			c19.2-17.5,14.8-43.7,26.6-65c1.5-3.7,7.4-7.5,14.5-6.6c1.9,0.2,3.8,0.7,5.6,1.5c1.8,0.9,3.5,2.1,5,3.8c10.3,10,13.3,28.7,31,31.2
			c1.5-42.5,41.4-45,82-46.5c2.1-0.6,4.2-1.1,6.3-1.5c2.1-0.5,4.2-0.8,6.4-1.1c1.8,0,3.6,0,5.4,0c54.9,0,89.8,0,89.8,0"/>
		<path class="st1" d="M801.1,244.3c0,0-24.7,0-65.2,0c-2.4,0-4.8,0-7.3,0c-13.4,1-23.1-5-32.2-11.9c-1.8-1.4-3.6-2.8-5.4-4.2
			c-0.9-1.1-1.9-2.1-2.9-3s-1.9-1.8-2.9-2.6c-1.8-1-3.7-2-5.6-2.8c-3.3-2-7.7-3.3-12.1-3.3c-34,0-75.3,33.7-104.5,8
			c-1.4-1.3-2.7-2.7-3.9-4.3c-10.7-13.7-14.5-36.1-32.8-47.1c-1.6-1-3.3-2-5.1-2.8c-2.5-1.2-4.8-1.9-7-2.2
			c-18.4,4.1-19.6,22.8-30.4,31.6c-1.6,1.3-3.3,2.3-5.3,3.1c-1.5-3.7,0-11.2-8.9-6.2c-3,1.2-5.9,3.7-8.9,6.2c-1.5,0-5.9,1.3-7.4,0
			c-16.3-6.3-16.3-30-34-28.8c-20.7,1.2-14.8,32.5-35.4,33.7c-22.2,0-28.1-22.5-36.4-36.7c-0.9-1.8-1.8-3.5-2.7-5.3
			c-1.9-3.5-4-7-6.6-10.5c-7.4-7.5-16.2,0-20.7,5c-19.2,17.5-14.8,43.7-26.6,65c-1.5,3.7-7.4,7.5-14.5,6.6c-1.9-0.2-3.8-0.7-5.6-1.5
			c-1.8-0.9-3.5-2.1-5-3.8c-10.3-10-13.3-28.7-31-31.2c-1.5,42.5-41.4,45-82,46.5c-2.1,0.6-4.2,1.1-6.3,1.5
			c-2.1,0.5-4.2,0.8-6.4,1.1c-1.8,0-3.6,0-5.4,0c-54.9,0-89.8,0-89.8,0"/>
		<g>
		</g>
		<g>
		</g>
		<path class="st1" d="M39.6,242.8c0,0,36.5,0,93.5,0c1.5,0,2.9,0,4.4,0c1.4,0.3,2.7,0.5,4.2,0.5c1.4,0,2.8-0.1,4.3-0.3
			c13.2-1.4,26.5-12.7,38.3-10.2c4.9,1.5,9.7,2.3,14.4,2.6c2.4,0.2,4.7,0.2,7,0.1c2.3-0.2,4.4-0.6,6.4-1.2
			c16.5-5.2,20.9-23.9,38.6-23.9c5.9,0,8.9,10,17.7,8.7c4.4-1.2,8.9-6.2,11.8-6.2c9.7,3,18.6,8.2,27.2,13.8c1.7,1.1,3.5,2.3,5.2,3.4
			c8.2,6.4,18.9,10.5,29.6,11.3c2.1,0.2,4.3,0.2,6.4,0.1c5.4-2.4,11.3,0.1,17.2-3.6c13.8-9.5,28.6-17.7,44.1-23.1
			c2.2-0.8,4.4-1.5,6.7-2.2c17.2-7.2,36.4-13.4,55.6-7.2c20.7,7.5,41.4,15,62.8,15.3c1.7-0.2,3.4-0.6,5.2-1.3
			c6.9-2.5,14-7.7,21.3-9.9c2.3-0.9,4.5-1.7,6.8-2.4c24.9-7.9,51.3-6.4,73,13.4c1.8,1.1,3.6,2.3,5.4,3.4c5.4,3.4,10.7,6.9,16.1,10.1
			c7.4,5,16.2,5,23.3,6.4c1.8,0.3,3.5,0.5,5.3,0.8c3.5,0.5,7.1,1,10.6,1.5c1.8,0.1,3.6,0.1,5.4,0.1c52.2,0,85.3,0,85.3,0"/>
		<path class="st1" d="M796.5,244.3c0,0-34,0-87.5,0c-2,0-4,0-6,0c-2.8-0.3-5.3-0.1-7.4,0.4s-4.1,1.4-5.8,2.5
			c-12.1,12.2-20.9,25.9-38.7,30.9c-2.3,0.6-4.7,1.2-7,1.6c-2.4,0.4-4.7,0.8-7,1.1c-10.7-0.7-21.6,4.2-31.2,8
			c-1.9,0.7-3.8,1.4-5.7,2c-5.1,1.1-9.6,3.6-14,2.3c-19.2-11.2-38.4-5-59.1-6.2c-26.6,0-34-25-46.4-41.3c-1.3-1.5-2.6-3-3.9-4.4
			c-4.5-4.9-9.3-9.5-14.5-13.9c-1.3-1.1-2.6-2.2-4-3.2c-15.4-17.1-46.4-8.3-49.3,11.7c-3,16.2-1.5,35-14.8,46.2
			c-10.3,10-31,8.7-44.1,2.3c-1.8-1-3.5-2.1-5.2-3.3c-11.9-8.6-22.6-22.6-36.4-27.7c-11.8-3.7-16.2,6.2-18.1,15.3
			c-0.4,1.7-0.8,3.4-1.7,4.8c-0.8,1.4-2,2.7-3.9,3.6c-20.7,7.5-41.4,7.5-60-2.8c-2.2-0.9-4.5-1.8-6.8-2.6
			c-6.9-2.5-14.1-4.5-21.7-5.8c-2-0.4-3.8-1-5.6-1.8c-8.8-3.8-15.8-11.2-26.6-13.5c-2.2-0.9-4.3-1.7-6.6-2.4
			c-8.9-2.9-18.4-4.3-28.8-3.6c-2.2,0-4.3,0-6.4,0c-48.5,0-78.9,0-78.9,0"/>
		<path class="st1" d="M794.9,243.5c0,0-34,0-87.5,0c-2,0-8.8-22.2-10.8-22.2c-2.8-0.3-5.3-0.1-7.4,0.4c-2.2,0.5-4.1,1.4-5.8,2.5
			c-12.1,12.2-20.9,25.9-38.7,30.9c-2.3,0.6-4.7,1.2-7,1.6c-2.4,0.4-4.7,0.8-7,1.1c-10.7-0.7-21.6,4.2-31.2,8
			c-1.9,0.7-3.8,1.4-5.7,2c-5.1,1.1-9.6,3.6-14,2.3c-19.2-11.2-38.4-5-59.1-6.2c-26.6,0-34-25-46.4-41.3c-1.3-1.5-2.6-3-3.9-4.4
			c-4.5-4.9-9.3-9.5-14.5-13.9c-1.3-1.1-2.6-2.2-4-3.2c-15.4-17.1-46.4-8.3-49.3,11.7c-3,16.2-1.5,35-14.8,46.2
			c-10.3,10-31,8.7-44.1,2.3c-1.8-1-3.5-2.1-5.2-3.3c-11.9-8.6-22.6-22.6-36.4-27.7c-11.8-3.7-16.2,6.2-18.1,15.3
			c-0.4,1.7-0.8,3.4-1.7,4.8c-0.8,1.4-2,2.7-3.9,3.6c-20.7,7.5-41.4,7.5-60-2.8c-2.2-0.9-4.5-1.8-6.8-2.6
			c-6.9-2.5-14.1-4.5-21.7-5.8c-2-0.4-3.8-1-5.6-1.8c-8.8-3.8-19.1,11-29.9,8.7c-2.2-0.9-4.3-1.7-6.6-2.4
			c-8.9-2.9-18.4-4.3-28.8-3.6c-2.2,0-4.3,0-6.4,0c-48.5,0-78.9,0-78.9,0"/>
	</g>
</g>
</svg>
